<?xml version="1.0" encoding="UTF-8" standalone="no"?>
<!-- Created with Inkscape (http://www.inkscape.org/) -->

<svg
   version="1.1"
   viewBox="0 0 32 32"
   id="svg46"
   sodipodi:docname="Logo.svg"
   inkscape:version="1.1.2 (0a00cf5339, 2022-02-04, custom)"
   xmlns:inkscape="http://www.inkscape.org/namespaces/inkscape"
   xmlns:sodipodi="http://sodipodi.sourceforge.net/DTD/sodipodi-0.dtd"
   xmlns:xlink="http://www.w3.org/1999/xlink"
   xmlns="http://www.w3.org/2000/svg"
   xmlns:svg="http://www.w3.org/2000/svg">
  <defs
     id="defs50" />
  <sodipodi:namedview
     id="namedview48"
     pagecolor="#ffffff"
     bordercolor="#666666"
     borderopacity="1.0"
     inkscape:pageshadow="2"
     inkscape:pageopacity="0.0"
     inkscape:pagecheckerboard="0"
     showgrid="false"
     inkscape:zoom="39"
     inkscape:cx="14.115385"
     inkscape:cy="14.833333"
     inkscape:window-width="1920"
     inkscape:window-height="1021"
     inkscape:window-x="0"
     inkscape:window-y="535"
     inkscape:window-maximized="1"
     inkscape:current-layer="eye_right"
     inkscape:object-paths="true"
     inkscape:snap-smooth-nodes="true" />
  <g
     transform="matrix(.076212 0 0 .076212 13.201 22.857)"
     id="tree"
     style="stroke:#000000;stroke-opacity:1;stroke-width:3;stroke-miterlimit:4;stroke-dasharray:none;stroke-linecap:round;stroke-linejoin:round">
    <path
       d="M 102.67044,121.14977 C 79.305443,79.862769 82.255,37.101 92.8792,-1.57 l -98.384,-1.1806 c -12.505957,43.605332 -31.489474,89.15528 -49.284757,123.90037"
       fill="#8c4c20"
       id="trunk"
       sodipodi:nodetypes="cccc" />
    <path
       d="m -84.6452,36.1636 c -32.4371,-14.375338 -27.833,-39.852 -27.833,-39.852 0,0 -23.28153,-11.625483 -28.65955,-22.519986 -9.38574,-19.013097 -9.0926,-44.098231 -0.78324,-63.605776 5.78925,-13.591178 32.33279,-30.310238 32.33279,-30.310238 0,0 -47.46626,-15.78367 -51.114,-36.375 -5.34966,-30.19862 22.45531,-67.89804 52.075,-75.851 19.33837,-5.1924 54.232,25.832 54.232,25.832 0,0 11.139943,-54.98486 32.268,-69.146 34.368409,-23.03552 92.877475,-33.08284 123.98668,-5.80575 15.1423,13.27704 5.08632,60.20175 5.08632,60.20175 0,0 46.40105,-25.05233 68.224,-16.595 35.18574,13.63597 66.94124,56.3411 63.2418,93.89493 -2.52977,25.68029 -54.9438,54.53507 -54.9438,54.53507 0,0 33.40944,14.954892 35.956,30.453606 4.98239,30.323433 -21.83206,62.192983 -47.58462,78.960225 C 139.93482,40.753053 95.646822,42.784187 58.5298,34.3156 41.554709,30.442578 14.6808,5.9316 14.6808,5.9316 c 0,0 -13.3747587,19.787697 -23.683,24.634 -22.880751,10.757127 -51.338089,16.369349 -75.643,5.598 z"
       fill="#54d64d"
       id="crown"
       sodipodi:nodetypes="scaacaacaacaacaaacas" />
    <g
       id="leaves"
       style="fill:none">
      <path
         d="m 134.08,-82.511 c 11.782,24.338 -1.2057,31.098 -14.689,37.505"
         id="path6" />
      <path
         d="m -39.693,-34.38 c -15.227,-8.0314 -17.55,-18.751 -12.814,-30.942"
         id="path8" />
      <path
         d="m 4.3756,-65.946 c 0,0 0.6582,37.665 32.504,30.629 31.488,-6.9569 20.003,-37.505 20.003,-37.505"
         id="path10" />
      <path
         d="m -123.62,-164.54 c 3.4852,-18.986 11.776,-34.54 31.118,-42.2"
         id="path20" />
      <path
         d="m -6.394,-241.69 c 12.292,-11.198 26.5,-15.368 42.201,-14.067"
         id="path22" />
      <path
         d="m 155.59,-155.16 c 6.7924,7.8809 11.858,16.913 8.5254,31.544"
         id="path24" />
      <path
         d="m 155.59,-209.72 c 18.739,-4.5546 34.756,-3.3927 42.201,15.772"
         id="path26" />
    </g>
    <g
       id="eye_left">
      <path
         d="m -5.8129733,-111.96335 c 0,0 11.9422726,-46.10513 3.2912833,-66.56805 -5.2106951,-12.3253 -16.791075,-27.40915 -30.14261,-26.5142 -14.934646,1.00106 -25.181861,19.54784 -29.456901,33.89252 -6.408112,21.50209 9.139994,66.68654 9.139994,66.68654 0,0 15.195078,-6.65669 23.300256,-7.92281 7.861914,-1.22813 23.8679777,0.426 23.8679777,0.426 z"
         fill="#ffffff"
         id="eye_white_left"
         sodipodi:nodetypes="caaacac" />
      <path
         d="m -30.556995,-180.916 c -8.954844,0.03 -14.112583,12.62727 -16.385905,21.2888 -4.274835,16.28745 7.181489,50.00422 7.181489,50.00422 0,0 7.306088,-2.86855 11.157911,-3.39567 3.318597,-0.45415 10.045831,0.23524 10.045831,0.23524 0,0 8.8513218,-31.95366 4.427269,-47.08405 -2.497707,-8.54223 -7.526743,-21.07834 -16.426595,-21.04854 z"
         id="eye_iris_left"
         fill="black"
         sodipodi:nodetypes="aacacaa"
         style="stroke:none;fill:#000000;fill-opacity:1" />
      <path
         d="m -29.549,-153.25259 a 4.54,14.729 0 0 1 -4.54,14.729 4.54,14.729 0 0 1 -4.54,-14.729 4.54,14.729 0 0 1 4.54,-14.729 4.54,14.729 0 0 1 4.54,14.729 z"
         fill="#e5e5e5"
         id="eye_reflection_left"
         style="stroke:none" />
      <path
         d="m -61.166,-100.67 c 0,0 19.873902,-9.83811 30.657211,-11.59628 11.000872,-1.79365 33.413789,1.28288 33.413789,1.28288"
         id="eyelash_left"
         style="fill:none"
         sodipodi:nodetypes="cac" />
    </g>
    <g
       id="eye_right">
      <path
         d="m 55.632,-111.31296 c 0,0 12.502,-5.0007 26.254,-2.8129 13.752,2.1878 22.816,11.252 22.816,11.252"
         fill="none"
         id="eye_lash_right" />
      <path
         d="m 94.097,-208.75007 c -14.803587,-2.28379 -30.347447,12.0972 -36.981774,25.52656 -10.402457,21.05689 3.447354,70.37435 3.447354,70.37435 0,0 14.354537,-2.40945 21.383475,-1.16425 6.91549,1.2251 19.364525,8.30295 19.364525,8.30295 0,0 23.09928,-46.61153 18.20278,-70.32572 -2.79238,-13.5237 -11.76884,-30.60845 -25.41636,-32.71389 z"
         fill="#ffffff"
         id="eye_white_right"
         sodipodi:nodetypes="aacacaa" />
      <path
         d="m 70.967176,-174.90834 c -10.329364,17.24602 0.994819,60.30007 0.994819,60.30007 0,0 7.443502,-0.12814 11.042136,0.6771 3.664452,0.81997 10.46565,4.16836 10.46565,4.16836 0,0 15.577799,-38.56285 10.958839,-57.53004 -1.77337,-7.28212 -6.569285,-16.08176 -13.89182,-17.68004 -7.166616,-1.56425 -15.800518,3.77161 -19.569624,10.06455 z"
         id="eye_iris_right"
         sodipodi:nodetypes="acacaaa"
         style="stroke:none;fill:#000000;fill-opacity:1" />
      <use
         x="0"
         y="0"
         xlink:href="#eye_reflection_left"
         id="use12381"
         transform="translate(115.40009,-3.7008776)"
         width="100%"
         height="100%" />
    </g>
  </g>
</svg>
