<?xml version="1.0" encoding="UTF-8" standalone="no"?>
<!-- Created with Inkscape (http://www.inkscape.org/) -->

<svg
   version="1.1"
   viewBox="0 0 32 32"
   id="svg46"
   sodipodi:docname="Logo.svg"
   inkscape:export-filename="/home/l0drex/Projekte/family-tree/img/tile.png"
   inkscape:export-xdpi="576"
   inkscape:export-ydpi="576"
   inkscape:version="1.1.1 (3bf5ae0d25, 2021-09-20, custom)"
   xmlns:inkscape="http://www.inkscape.org/namespaces/inkscape"
   xmlns:sodipodi="http://sodipodi.sourceforge.net/DTD/sodipodi-0.dtd"
   xmlns="http://www.w3.org/2000/svg"
   xmlns:svg="http://www.w3.org/2000/svg">
  <defs
     id="defs50" />
  <sodipodi:namedview
     id="namedview48"
     pagecolor="#ffffff"
     bordercolor="#666666"
     borderopacity="1.0"
     inkscape:pageshadow="2"
     inkscape:pageopacity="0.0"
     inkscape:pagecheckerboard="0"
     showgrid="false"
     inkscape:zoom="19.5"
     inkscape:cx="6.9487179"
     inkscape:cy="16.025641"
     inkscape:window-width="1920"
     inkscape:window-height="982"
     inkscape:window-x="0"
     inkscape:window-y="0"
     inkscape:window-maximized="1"
     inkscape:current-layer="svg46" />
  <g
     transform="matrix(.076212 0 0 .076212 13.201 22.857)"
     id="g44">
    <path
       d="m-55.126 118.29h157.46c-23.365-41.287-20.079-81.189-9.4548-119.86l-98.384-1.1806c-12.596 47.4-30.842 84.455-49.617 121.04z"
       fill="#8c4c20"
       stroke="#000"
       stroke-linecap="round"
       stroke-width="3"
       id="path2" />
    <path
       d="m-9.0052 30.57c-12.951 5.4088-43.371 20.345-75.64 5.5936-32.268-14.751-27.833-39.852-27.833-39.852s-42.41-7.3756-31.346-59.005c11.063-51.629 34.236-57.431 34.236-57.431s-38.834-2.2375-51.114-36.375c-10.535-29.284 28.386-69.436 52.075-75.851 30.628-8.2947 54.232 25.832 54.232 25.832s0.92195-47.942 32.268-69.146c31.346-21.205 89.947-30.616 111.14-14.846 33.478 24.91 17.933 69.242 17.933 69.242s34.112-24.893 68.224-16.595c34.112 8.2976 71.98 85.911 62.766 105.79-10.648 22.976-54.468 42.64-54.468 42.64s26.737 4.6098 35.956 29.502c9.2195 24.893-11.985 59.927-44.254 74.678s-92.262 26.354-116.64 19.569c-13.558-3.773-43.849-28.384-43.849-28.384s-10.732 19.225-23.683 24.634z"
       fill="#54d64d"
       stroke="#000"
       stroke-linecap="round"
       stroke-linejoin="round"
       stroke-width="3"
       id="path4" />
    <g
       fill="none"
       stroke="#000"
       stroke-linecap="round"
       stroke-width="3"
       id="g14">
      <path
         d="m134.08-82.511c11.782 24.338-1.2057 31.098-14.689 37.505"
         id="path6" />
      <path
         d="m-39.693-34.38c-15.227-8.0314-17.55-18.751-12.814-30.942"
         id="path8" />
      <path
         d="m4.3756-65.946s0.6582 37.665 32.504 30.629c31.488-6.9569 20.003-37.505 20.003-37.505"
         id="path10" />
      <path
         d="m-61.166-100.67s8.7512-11.564 28.754-14.689c20.003-3.1254 35.317 4.3756 35.317 4.3756"
         id="path12" />
    </g>
    <path
       d="m-30.801-205.11c-0.60741 8e-3 -1.2284 0.0289-1.8633 0.0644-20.477 1.1454-27.542 25.936-29.219 47.215-1.5286 19.401 4.4124 44.899 11.426 48.465 4.4705-2.4942 10.395-4.8576 17.906-6.0312 11.34-1.7719 21.165-0.12896 27.555 1.627l0.16211-0.0176s6.063-50.055 2.3125-64.744c-3.6333-14.23-9.4496-26.837-28.279-26.578z"
       fill="#fff"
       stroke="#000"
       stroke-linecap="round"
       stroke-width="3"
       id="path16" />
    <path
       d="m-29.043-182.43c-0.42349-6e-3 -0.84226 0.0114-1.2539 0.0488-6.5864 0.59877-12.695 3.4738-16.646 22.754-3.2712 15.96 5.5146 38.161 8.668 45.418 1.7964-0.46841 3.7003-0.87316 5.7246-1.1894 3.1205-0.48758 6.1266-0.71669 8.9785-0.75586 2.5568-7.8636 10.176-32.396 9.4414-43.713-1.1227-17.289-8.5598-22.475-14.912-22.562z"
       fill="#0c0c0c"
       id="path18" />
    <g
       fill="none"
       stroke="#000"
       stroke-linecap="round"
       stroke-width="3"
       id="g28">
      <path
         d="m-123.62-164.54c3.4852-18.986 11.776-34.54 31.118-42.2"
         id="path20" />
      <path
         d="m-6.394-241.69c12.292-11.198 26.5-15.368 42.201-14.067"
         id="path22" />
      <path
         d="m155.59-155.16c6.7924 7.8809 11.858 16.913 8.5254 31.544"
         id="path24" />
      <path
         d="m155.59-209.72c18.739-4.5546 34.756-3.3927 42.201 15.772"
         id="path26" />
    </g>
    <path
       d="m-29.549-154.68a4.54 14.729 0 0 1-4.54 14.729 4.54 14.729 0 0 1-4.54-14.729 4.54 14.729 0 0 1 4.54-14.729 4.54 14.729 0 0 1 4.54 14.729z"
       fill="#e5e5e5"
       fill-rule="evenodd"
       stroke-linecap="round"
       stroke-linejoin="round"
       stroke-width="50.068"
       id="path30" />
    <g
       transform="translate(0 8.3821)"
       stroke-linecap="round"
       id="g42">
      <g
         stroke="#000"
         stroke-width="3"
         id="g38">
        <path
           d="m55.632-118.45s12.502-5.0007 26.254-2.8129c13.752 2.1878 22.816 11.252 22.816 11.252"
           fill="none"
           id="path32" />
        <path
           d="m94.097-216.56c-14.576-3.4532-29.984 10.491-35.636 27.377-7.3199 21.868 1.8965 68.98 1.8965 68.98l0.20508 0.2168c4.8946-1.2568 12.867-2.6286 21.324-1.2832 8.7569 1.3931 15.599 5.5682 19.424 8.4219 6.9489-14.444 17.833-36.151 18.371-50.812 0.7674-20.901-6.5251-48.385-25.585-52.9z"
           fill="#fff"
           id="path34" />
        <path
           d="m89.488-192.13c-10.8 0.1098-20.583 9.6113-22.922 23.645-1.4961 8.9763 4.5454 32.636 8.5098 46.682 2.2006 0.0176 4.4839 0.16892 6.8105 0.53907 3.5842 0.5702 6.8392 1.6099 9.709 2.832 4.3354-13.744 11.486-39.201 9.9785-53.5-0.97939-9.2872-2.7934-19.797-11.037-20.178-0.35029-0.0162-0.70044-0.0231-1.0488-0.0195z"
           id="path36" />
      </g>
      <path
         d="m82.577-161.99a4.54 14.729 0 0 1-4.54 14.729 4.54 14.729 0 0 1-4.54-14.729 4.54 14.729 0 0 1 4.54-14.729 4.54 14.729 0 0 1 4.54 14.729z"
         fill="#e5e5e5"
         fill-rule="evenodd"
         stroke-linejoin="round"
         stroke-width="50.068"
         id="path40" />
    </g>
  </g>
</svg>
